# xmcd
#
# Track frame offsets:
#	150
#	12761
#	25228
#	39156
#	49939
#	62828
#	75661
#	86904
#	97865
#	106993
#	118614
#	130785
#	144046
#	154043
#	165182
#	177735
#	189040
#	198851
#	212447
#	223463
#
# Disc length: 3135 seconds
#
# Revision: 1
# Processed by: cddbd v1.5.2PL0 Copyright (c) Steve Scherf et al.
# Submitted via: audiograbber 1.82.02
#
DISCID=fe0c3d14
DTITLE=Diverse - 200 Great Train Songs CD 6
DYEAR=2000
DGENRE=Railroad Songs
TTITLE0=Art Low - Big Train
TTITLE1=Red Foley - Tight Train to Mephis
TTITLE2=Rollee Mc Gill - There goes that Train
TTITLE3=Cliff Shephard - Railroad Crossing
TTITLE4=Bill Flagg - Im so lonley
TTITLE5=Hank Penny - Lonsome Train Blues
TTITLE6=Lannie Walker - Side Track Daddy
TTITLE7=Larry Harvey - Rolling Home
TTITLE8=Sonny Anderson - Lonely Lonely Train
TTITLE9=Hank Snow - Hobo Bills last Ride
TTITLE10=Ken Koyler - Down Bound Train
TTITLE11=Jim Foley - Goodbye Train
TTITLE12=Cousin Joe Maphis - Lonesome Train Boogie
TTITLE13=Tommy Faile - Big Train
TTITLE14=Jimmie Rodgers - Waiting for a Train
TTITLE15=Norman Sullivan - Folsom Prison
TTITLE16=Freddy Jacobs - Lonesome Train
TTITLE17=Al Sears - Now ride the D-Train
TTITLE18=The Champs - Tough Train
TTITLE19=Little Esther - Mainliner
EXTD=
EXTT0=
EXTT1=
EXTT2=
EXTT3=
EXTT4=
EXTT5=
EXTT6=
EXTT7=
EXTT8=
EXTT9=
EXTT10=
EXTT11=
EXTT12=
EXTT13=
EXTT14=
EXTT15=
EXTT16=
EXTT17=
EXTT18=
EXTT19=
PLAYORDER=
